<svg width="32" height="32" viewBox="0 0 32 32" fill="none" xmlns="http://www.w3.org/2000/svg">
<path id="Vector" d="M0 28.4444H32V32H0V28.4444ZM5.33333 23.1111C7.28889 23.1111 8.88889 21.5111 8.88889 19.5556C8.88889 18.6667 8.53333 17.7778 8 17.2444L10.3111 12.4444H10.6667C11.5556 12.4444 12.4444 12.0889 12.9778 11.5556L17.7778 14.0444V14.2222C17.7778 16.1778 19.3778 17.7778 21.3333 17.7778C23.2889 17.7778 24.8889 16.1778 24.8889 14.2222C24.8889 13.3333 24.5333 12.6222 24 11.9111L26.3111 7.11111H26.6667C28.6222 7.11111 30.2222 5.51111 30.2222 3.55556C30.2222 1.6 28.6222 0 26.6667 0C24.7111 0 23.1111 1.6 23.1111 3.55556C23.1111 4.44444 23.4667 5.33333 24 5.86667L21.6889 10.6667H21.3333C20.4444 10.6667 19.5556 11.0222 19.0222 11.5556L14.2222 9.24444V8.88889C14.2222 6.93333 12.6222 5.33333 10.6667 5.33333C8.71111 5.33333 7.11111 6.93333 7.11111 8.88889C7.11111 9.77778 7.46667 10.6667 8 11.2L5.68889 16H5.33333C3.37778 16 1.77778 17.6 1.77778 19.5556C1.77778 21.5111 3.37778 23.1111 5.33333 23.1111Z" fill="white"/>
</svg>
