<svg width="32" height="32" viewBox="0 0 32 32" fill="none" xmlns="http://www.w3.org/2000/svg">
<path fill-rule="evenodd" clip-rule="evenodd" d="M16 30C19.713 30 23.274 28.525 25.8995 25.8995C28.525 23.274 30 19.713 30 16C30 12.287 28.525 8.72601 25.8995 6.1005C23.274 3.475 19.713 2 16 2C12.287 2 8.72601 3.475 6.1005 6.1005C3.475 8.72601 2 12.287 2 16C2 19.713 3.475 23.274 6.1005 25.8995C8.72601 28.525 12.287 30 16 30ZM16 32C20.2435 32 24.3131 30.3143 27.3137 27.3137C30.3143 24.3131 32 20.2435 32 16C32 11.7565 30.3143 7.68687 27.3137 4.68629C24.3131 1.68571 20.2435 0 16 0C11.7565 0 7.68687 1.68571 4.68629 4.68629C1.68571 7.68687 0 11.7565 0 16C0 20.2435 1.68571 24.3131 4.68629 27.3137C7.68687 30.3143 11.7565 32 16 32ZM17.86 13.176L13.28 13.75L13.116 14.51L14.016 14.676C14.604 14.816 14.72 15.028 14.592 15.614L13.116 22.55C12.728 24.344 13.326 25.188 14.732 25.188C15.822 25.188 17.088 24.684 17.662 23.992L17.838 23.16C17.438 23.512 16.854 23.652 16.466 23.652C15.916 23.652 15.716 23.266 15.858 22.586L17.86 13.176ZM18 9C18 10.1046 17.1046 11 16 11C14.8954 11 14 10.1046 14 9C14 7.89543 14.8954 7 16 7C17.1046 7 18 7.89543 18 9Z" fill="white"/>
</svg>
