<svg width="22" height="28" viewBox="0 0 22 28" fill="none" xmlns="http://www.w3.org/2000/svg">
<path d="M21.6667 8.66663L13.6667 0.666626H3.00001C2.29277 0.666626 1.61449 0.947577 1.11439 1.44767C0.614295 1.94777 0.333344 2.62605 0.333344 3.33329V24.6666C0.333344 25.3739 0.614295 26.0521 1.11439 26.5522C1.61449 27.0523 2.29277 27.3333 3.00001 27.3333H19C19.7073 27.3333 20.3855 27.0523 20.8856 26.5522C21.3857 26.0521 21.6667 25.3739 21.6667 24.6666V8.66663ZM7.00001 23.3333H4.33334V11.3333H7.00001V23.3333ZM12.3333 23.3333H9.66668V15.3333H12.3333V23.3333ZM17.6667 23.3333H15V19.3333H17.6667V23.3333ZM13.6667 9.99996H12.3333V3.33329L19 9.99996H13.6667Z" fill="white"/>
</svg>
