<svg width="9" height="9" viewBox="0 0 9 9" fill="none" xmlns="http://www.w3.org/2000/svg">
<path fill-rule="evenodd" clip-rule="evenodd" d="M0.0381811 0.30926C0.0633875 0.248515 0.100331 0.193339 0.146894 0.146894C0.193339 0.100331 0.248515 0.0633875 0.30926 0.0381811C0.370005 0.0129746 0.435127 0 0.500894 0C0.566661 0 0.631782 0.0129746 0.692528 0.0381811C0.753273 0.0633875 0.808448 0.100331 0.854894 0.146894L4.0009 3.2929L7.14691 0.146894C7.19335 0.100331 7.24853 0.0633875 7.30927 0.0381811C7.37002 0.0129746 7.43514 0 7.50091 0C7.56667 0 7.63179 0.0129746 7.69254 0.0381811C7.75328 0.0633875 7.80846 0.100331 7.85491 0.146894C7.90147 0.193339 7.93841 0.248515 7.96362 0.30926C7.98882 0.370005 8.0018 0.435127 8.0018 0.500894C8.0018 0.566661 7.98882 0.631782 7.96362 0.692528C7.93841 0.753273 7.90147 0.808448 7.85491 0.854894L4.7089 4.0009L7.85489 7.14689C7.94878 7.24078 8.00152 7.36812 8.00152 7.50089C8.00152 7.63367 7.94878 7.76101 7.85489 7.85489C7.76101 7.94878 7.63367 8.00152 7.50089 8.00152C7.36812 8.00152 7.24078 7.94878 7.14689 7.85489L4.0009 4.7089L0.854906 7.85489C0.76102 7.94878 0.633682 8.00152 0.500906 8.00152C0.36813 8.00152 0.240793 7.94878 0.146906 7.85489C0.0530195 7.76101 0.000274659 7.63367 0.000274658 7.50089C0.000274657 7.36812 0.0530195 7.24078 0.146906 7.14689L3.2929 4.0009L0.146894 0.854894C0.100331 0.808448 0.0633875 0.753273 0.0381811 0.692528C0.0129746 0.631782 0 0.566661 0 0.500894C0 0.435127 0.0129746 0.370005 0.0381811 0.30926Z" fill="white"/>
</svg>
