<svg width="24" height="32" viewBox="0 0 24 32" fill="none" xmlns="http://www.w3.org/2000/svg">
<path d="M8.17863 27.3112H11.8073C11.8073 27.3112 10.2798 31.5468 9.98625 31.9604C9.64613 31.5201 8.17863 27.3112 8.17863 27.3112ZM12.1608 27.3112H15.7894C15.7894 27.3112 14.2619 31.5468 13.9684 31.9604C13.6283 31.5201 12.1608 27.3112 12.1608 27.3112H12.1608ZM11.9709 14.5856C10.0488 14.5856 8.49067 13.0274 8.49067 11.1053C8.49067 9.18319 10.0488 7.62501 11.9709 7.62501C13.893 7.62501 15.4511 9.18319 15.4511 11.1053C15.4511 13.0274 13.893 14.5856 11.9709 14.5856ZM23.7063 21.1656C23.2162 18.6853 22.0851 16.5426 20.3214 14.734C20.2792 14.6907 20.1893 14.6229 20.1893 14.6229C20.1893 14.6229 20.1798 14.4099 20.1786 14.2978C20.1666 13.2305 20.0302 12.1873 19.8051 11.1429C18.9814 7.32064 16.9895 4.19774 14.1064 1.60518C13.4326 0.999237 11.9847 0.0145356 11.9922 0.00892156C12.1582 -0.112903 10.5015 1.0798 9.91364 1.5918C8.69914 2.64976 7.64801 3.80373 6.73179 5.15737C4.90882 7.85098 3.88913 10.7901 3.80585 14.0472C3.80118 14.2276 3.80585 14.6069 3.80585 14.6069C3.80585 14.6069 3.60599 14.7588 3.43813 14.9426C0.632053 18.1405 -0.55045 21.7955 0.240193 26.031C0.379608 26.7777 0.961503 27.3941 1.7005 27.4887C2.53371 27.5953 3.23453 27.2104 3.62985 26.4068C4.22709 25.1927 5.01109 24.1101 5.94284 23.129C6.12903 22.9331 6.13774 22.9372 6.26209 23.1472C6.63701 23.78 7.07135 24.3725 7.52637 24.9507C7.6307 25.0833 7.58981 25.037 7.69638 25.189H16.2559C16.7036 24.6188 17.3066 23.7754 17.6735 23.1503C17.8104 22.9172 17.8244 22.9033 18.0287 23.1191C18.9818 24.1256 19.7421 25.2583 20.3599 26.4971C20.7223 27.2239 21.4367 27.5954 22.2411 27.4833C22.9446 27.3855 23.5519 26.8063 23.7014 26.087C24.0411 24.4523 24.0307 22.8078 23.7061 21.1656H23.7063ZM13.8417 11.1106C13.8417 12.1409 13.0065 12.9759 11.9763 12.9759C10.9462 12.9759 10.1109 12.1409 10.1109 11.1106C10.1109 10.0804 10.9461 9.24523 11.9763 9.24523C13.0065 9.24523 13.8417 10.0803 13.8417 11.1106"/>
</svg>
