<svg width="32" height="32" viewBox="0 0 32 32" fill="none" xmlns="http://www.w3.org/2000/svg">
<path fill-rule="evenodd" clip-rule="evenodd" d="M16 2C23.7288 2 30 8.27124 30 16C30 23.7288 23.7288 30 16 30C8.27124 30 2 23.7288 2 16C2 8.27124 8.27124 2 16 2ZM32 16C32 7.16667 24.8333 0 16 0C7.16667 0 0 7.16667 0 16C0 24.8333 7.16667 32 16 32C24.8333 32 32 24.8333 32 16ZM9.65659 22.3434C10.0766 22.7634 10.6461 22.9995 11.24 23H20.76C21.3539 22.9995 21.9234 22.7634 22.3434 22.3434C22.7634 21.9234 22.9995 21.3539 23 20.76V11.24C22.9995 10.6461 22.7634 10.0766 22.3434 9.65659C21.9234 9.23661 21.3539 9.00046 20.76 9H11.24C10.6461 9.00046 10.0766 9.23661 9.65659 9.65659C9.23661 10.0766 9.00046 10.6461 9 11.24V20.76C9.00046 21.3539 9.23661 21.9234 9.65659 22.3434Z"/>
</svg>
